HIERARCHY
ROOT Hips
{
 OFFSET 0.000000 0.000000 0.000000
 CHANNELS 6 Xposition Yposition Zposition Yrotation Xrotation Zrotation
 JOINT Chest
 {
  OFFSET 0.000000 9.585900 0.002600
  CHANNELS 3 Yrotation Xrotation Zrotation
  JOINT Chest2
  {
   OFFSET 0.000000 9.601200 -0.005300
   CHANNELS 3 Yrotation Xrotation Zrotation
   JOINT Chest3
   {
    OFFSET 0.000000 9.561800 0.000000
    CHANNELS 3 Yrotation Xrotation Zrotation
    JOINT Chest4
    {
     OFFSET 0.000000 9.552100 0.000000
     CHANNELS 3 Yrotation Xrotation Zrotation
     JOINT Neck
     {
      OFFSET 0.000000 14.453000 0.000000
      CHANNELS 3 Yrotation Xrotation Zrotation
      JOINT Head
      {
       OFFSET 0.000000 8.936500 -0.011300
       CHANNELS 3 Yrotation Xrotation Zrotation
       End Site
       {
        OFFSET 0.000000 17.073600 -0.006000
       }
      }
     }
     JOINT RightCollar
     {
      OFFSET -2.921100 9.558500 0.000000
      CHANNELS 3 Yrotation Xrotation Zrotation
      JOINT RightShoulder
      {
       OFFSET -13.519700 0.000000 0.000000
       CHANNELS 3 Yrotation Xrotation Zrotation
       JOINT RightElbow
       {
        OFFSET 0.000000 -29.696600 0.000000
        CHANNELS 3 Yrotation Xrotation Zrotation
        JOINT RightWrist
        {
         OFFSET 0.000000 -24.004700 0.000000
         CHANNELS 3 Yrotation Xrotation Zrotation
         End Site
         {
          OFFSET 0.000000 -17.728500 0.000000
         }
        }
       }
      }
     }
     JOINT LeftCollar
     {
      OFFSET 2.921100 9.558500 0.000000
      CHANNELS 3 Yrotation Xrotation Zrotation
      JOINT LeftShoulder
      {
       OFFSET 13.519700 0.000000 0.000000
       CHANNELS 3 Yrotation Xrotation Zrotation
       JOINT LeftElbow
       {
        OFFSET 0.000000 -29.696600 0.000000
        CHANNELS 3 Yrotation Xrotation Zrotation
        JOINT LeftWrist
        {
         OFFSET 0.000000 -24.004700 0.000000
         CHANNELS 3 Yrotation Xrotation Zrotation
         End Site
         {
          OFFSET 0.000000 -17.728500 0.000000
         }
        }
       }
      }
     }
    }
   }
  }
 }
 JOINT RightHip
 {
  OFFSET -7.771700 -0.012900 -0.001300
  CHANNELS 3 Yrotation Xrotation Zrotation
  JOINT RightKnee
  {
   OFFSET 0.000000 -40.869800 0.001200
   CHANNELS 3 Yrotation Xrotation Zrotation
   JOINT RightAnkle
   {
    OFFSET 0.000000 -39.717900 0.002100
    CHANNELS 3 Yrotation Xrotation Zrotation
    JOINT RightToe
    {
     OFFSET 0.000000 -4.965400 11.033500
     CHANNELS 3 Yrotation Xrotation Zrotation
     End Site
     {
      OFFSET 0.000000 -1.423100 5.872300
     }
    }
   }
  }
 }
 JOINT LeftHip
 {
  OFFSET 7.771700 -0.012900 -0.001300
  CHANNELS 3 Yrotation Xrotation Zrotation
  JOINT LeftKnee
  {
   OFFSET 0.000000 -40.869800 0.001200
   CHANNELS 3 Yrotation Xrotation Zrotation
   JOINT LeftAnkle
   {
    OFFSET 0.000000 -39.717900 0.002100
    CHANNELS 3 Yrotation Xrotation Zrotation
    JOINT LeftToe
    {
     OFFSET 0.000000 -4.965400 11.033500
     CHANNELS 3 Yrotation Xrotation Zrotation
     End Site
     {
      OFFSET 0.000000 -1.423100 5.872300
     }
    }
   }
  }
 }
}
MOTION
Frames: 11
Frame Time: 0.008333
0.000000 85.388000 0.000000 0.000000 -5.767877 0.000000 0.000000 11.653817 0.000000 0.000000 -5.885947 0.000000 0.000000 -0.000000 0.000000 0.000000 -0.000000 0.000000 0.000000 12.528835 0.000000 0.000000 0.711642 0.000000 0.000000 -0.000000 0.000000 0.000000 0.000000 -90.000000 0.000000 -2.309062 0.000000 0.000000 2.309062 0.000000 0.000000 -0.000000 0.000000 0.000000 -0.000000 90.000000 0.000000 -2.309062 0.000000 0.000000 2.309062 0.000000 0.000000 8.520406 0.000000 0.000000 1.905762 0.000000 -0.000000 -4.658285 0.000000 0.000000 -0.000000 0.000000 0.000000 8.520406 0.000000 0.000000 1.905762 0.000000 -0.000000 -4.658285 0.000000 0.000000 -0.000000 0.000000
-13.914967 55.221750 16.438820 -178.801419 -15.675736 -1.577862 0.289051 14.859839 0.642978 0.026608 1.359327 0.072769 0.039127 2.268129 0.130185 0.320223 13.314473 0.781778 1.507047 12.009445 -3.305198 2.381622 -13.036245 -3.903090 -0.209160 -0.774883 2.110367 1.924459 -4.099291 -7.982747 -77.870391 -60.309333 109.553503 -14.147211 -4.619762 -3.715770 -6.201814 -2.919524 2.538078 2.153855 -7.468221 8.373566 55.750260 -50.267205 -99.762463 10.204724 -14.845090 8.652253 -0.854080 -59.383487 11.996387 -97.753390 86.993738 -102.218945 -10.875772 -22.438660 14.496990 0.042643 -0.161516 0.030185 10.725205 -55.815029 -6.475789 111.775289 76.959684 109.023492 -7.563448 -23.756045 1.726553 0.093641 0.246356 0.040245
-13.916353 55.222141 16.437515 -178.801486 -15.671424 -1.575696 0.293111 14.863615 0.639179 0.022045 1.356979 0.073598 0.042358 2.281740 0.127694 0.321145 13.321413 0.780256 1.513574 11.994894 -3.339608 2.379688 -13.047608 -3.900068 -0.205094 -0.798735 2.107993 1.923477 -4.102750 -7.982812 -77.864550 -60.315071 109.540855 -14.149818 -4.611647 -3.706784 -6.202753 -2.946834 2.545229 2.152722 -7.465463 8.374889 55.804263 -50.261694 -99.781994 10.215265 -14.893767 8.645330 -0.843207 -59.387037 11.988187 -97.707948 86.986183 -102.167846 -10.879057 -22.436127 14.497236 0.045626 -0.161191 0.030403 10.732836 -55.817596 -6.483460 111.769933 76.959654 109.019771 -7.567727 -23.756013 1.730494 0.095502 0.245780 0.038630
-13.917484 55.222765 16.435489 -178.801922 -15.669898 -1.576475 0.291144 14.868436 0.636957 0.024052 1.352417 0.075452 0.043296 2.284882 0.127954 0.325105 13.326890 0.779436 1.513573 11.992110 -3.351470 2.379676 -13.052882 -3.904356 -0.206562 -0.807596 2.106131 1.925572 -4.105593 -7.986962 -77.844012 -60.322510 109.525888 -14.156790 -4.623744 -3.707447 -6.206223 -2.961053 2.545042 2.150376 -7.461028 8.378958 55.815739 -50.262967 -99.785530 10.214298 -14.910601 8.645125 -0.836248 -59.386644 11.977044 -97.703894 86.984940 -102.168063 -10.804313 -22.438499 14.487603 0.024390 -0.165920 0.023627 10.732872 -55.816154 -6.483935 111.759447 76.959152 109.008468 -7.565196 -23.758876 1.733183 0.091930 0.247783 0.036524
-13.919039 55.223649 16.432564 -178.802886 -15.673083 -1.575955 0.294038 14.880497 0.639017 0.024618 1.353332 0.075146 0.042588 2.280660 0.127028 0.325545 13.325003 0.778714 1.513001 11.991435 -3.355264 2.383015 -13.051004 -3.917163 -0.208308 -0.808603 2.103603 1.935860 -4.104912 -7.999876 -77.839426 -60.314939 109.525390 -14.157439 -4.620609 -3.708960 -6.207767 -2.968993 2.542164 2.170385 -7.462499 8.387091 55.801345 -50.258306 -99.787746 10.215557 -14.913440 8.642478 -0.823289 -59.379599 11.968184 -97.682460 86.983920 -102.149832 -10.775786 -22.443053 14.489529 0.055954 -0.158188 0.022848 10.729307 -55.812509 -6.484535 111.773975 76.959793 109.023051 -7.555430 -23.759189 1.730852 0.088525 0.244580 0.035910
-13.920515 55.224448 16.429949 -178.805267 -15.674213 -1.576506 0.298686 14.886461 0.639344 0.025064 1.355787 0.075541 0.043093 2.282142 0.127092 0.327739 13.324987 0.778513 1.512806 11.994316 -3.368850 2.396993 -13.031055 -3.958837 -0.205719 -0.813226 2.100046 1.936078 -4.107631 -8.005188 -77.839239 -60.313080 109.529787 -14.162955 -4.614156 -3.707098 -6.211863 -2.979405 2.543211 2.178164 -7.463491 8.393648 55.809563 -50.258798 -99.792020 10.217739 -14.920859 8.639660 -0.817164 -59.376247 11.968704 -97.644530 86.981553 -102.108367 -10.790179 -22.438855 14.494893 0.059844 -0.146915 0.021155 10.723235 -55.811596 -6.478495 111.796407 76.962856 109.043477 -7.548599 -23.759895 1.727967 0.089560 0.241779 0.037529
-13.922286 55.224986 16.428165 -178.804426 -15.670581 -1.576830 0.297974 14.885929 0.640188 0.025103 1.354586 0.075188 0.043323 2.282714 0.127103 0.330473 13.330471 0.779111 1.513507 11.998464 -3.381895 2.399578 -13.027004 -3.970088 -0.204022 -0.813723 2.091011 1.934690 -4.115687 -8.001194 -77.825068 -60.311999 109.520727 -14.162661 -4.611201 -3.708270 -6.214492 -2.988126 2.541431 2.180236 -7.464018 8.397368 55.822509 -50.260407 -99.798387 10.202870 -14.919018 8.653740 -0.813676 -59.378441 11.967436 -97.612050 86.980118 -102.073243 -10.805228 -22.432298 14.495160 0.090427 -0.145744 0.027068 10.721660 -55.816341 -6.478848 111.804167 76.962172 109.049833 -7.548271 -23.755507 1.728271 0.088403 0.237325 0.038139
-13.922967 55.225482 16.426566 -178.802894 -15.666559 -1.584361 0.295318 14.889880 0.643301 0.028733 1.350902 0.076759 0.042799 2.283639 0.126999 0.320689 13.337227 0.777864 1.522840 12.007803 -3.401991 2.404993 -13.033407 -3.970395 -0.184539 -0.825218 2.085605 1.930239 -4.117319 -7.999070 -77.815267 -60.322868 109.511347 -14.169832 -4.607220 -3.701218 -6.200528 -2.999460 2.535213 2.192705 -7.473301 8.405346 55.806008 -50.262325 -99.788998 10.202200 -14.916296 8.656547 -0.815939 -59.380440 11.963965 -97.609917 86.986932 -102.075611 -10.739786 -22.430765 14.481245 0.067279 -0.156357 0.028007 10.704146 -55.819384 -6.466518 111.795036 76.961669 109.038953 -7.539312 -23.760827 1.726590 0.084928 0.242902 0.035916
-13.923944 55.225769 16.425588 -178.805016 -15.659917 -1.589358 0.296557 14.885120 0.648008 0.026808 1.353600 0.075148 0.042509 2.283758 0.127258 0.322112 13.334332 0.779280 1.526274 12.014164 -3.408999 2.414660 -13.027271 -3.981107 -0.164418 -0.826527 2.063191 1.942988 -4.120884 -7.991993 -77.832942 -60.317114 109.501829 -14.168060 -4.594424 -3.695975 -6.203762 -2.994188 2.512385 2.220209 -7.504113 8.434680 55.779989 -50.244247 -99.759282 10.208613 -14.903909 8.637759 -0.814134 -59.388633 11.964052 -97.592087 86.987020 -102.056343 -10.723810 -22.415545 14.466510 0.061335 -0.156102 0.037705 10.697540 -55.826107 -6.459251 111.784883 76.963469 109.033872 -7.544198 -23.760889 1.721806 0.090636 0.245525 0.038524
-13.927588 55.226113 16.424180 -178.801051 -15.657255 -1.580216 0.287785 14.884205 0.636987 0.018037 1.355789 0.076183 0.041587 2.283462 0.127023 0.330001 13.332292 0.777790 1.529097 12.020122 -3.415259 2.419810 -13.027751 -3.984044 -0.154732 -0.825482 2.057335 1.952155 -4.124867 -7.992744 -77.830701 -60.334419 109.498603 -14.173441 -4.593452 -3.682453 -6.207432 -2.991054 2.497892 2.235921 -7.520643 8.450665 55.773688 -50.236044 -99.746208 10.208350 -14.886704 8.626656 -0.784709 -59.393633 11.942511 -97.574929 86.970232 -102.022141 -10.839712 -22.395612 14.481337 0.046951 -0.151641 0.045320 10.708246 -55.829095 -6.479413 111.789016 76.961934 109.038199 -7.548012 -23.751046 1.720029 0.091226 0.238718 0.041114
-13.931601 55.226372 16.423074 -178.796634 -15.654094 -1.568905 0.273955 14.881796 0.623791 0.020737 1.355779 0.075131 0.041260 2.283384 0.126838 0.324238 13.331889 0.778110 1.536091 12.028743 -3.423017 2.426124 -13.029693 -3.987661 -0.142587 -0.823760 2.053006 1.956863 -4.127276 -7.993863 -77.831892 -60.337665 109.497138 -14.173557 -4.593022 -3.673201 -6.209148 -2.985521 2.482040 2.250648 -7.534682 8.465447 55.770811 -50.231192 -99.736720 10.210983 -14.864280 8.621968 -0.764896 -59.398901 11.927490 -97.589120 86.957487 -102.026887 -10.951720 -22.377111 14.498700 0.027799 -0.148753 0.046834 10.723988 -55.831585 -6.504556 111.782559 76.960332 109.031340 -7.550645 -23.738394 1.719291 0.094575 0.230652 0.043370
